# xmcd CD database file
# Copyright (C) 1997 Ti Kan
#
# Track frame offsets:
#  150
#  16510
#  33232
#  49472
#  70802
#  85357
#  103075
#  128750
#  144327
#  164135
#  177652
#  197375
#  212527
#
# Disc length: 3214 seconds
#
# Revision: 1
# Processed by: cddbd v1.4b41PL1 Copyright (c) Steve Scherf et al.
# Submitted via: CDWizzard Release:4.35
#
DISCID=b30c8c0d
DTITLE=Catfish Stephenson - Heart, Mind and Soul
DYEAR=1900
DGENRE=
TTITLE0=Steady Rollin' Man
TTITLE1=My Best Friend
TTITLE2=Black and Tan
TTITLE3=Heart, Mind and Soul
TTITLE4=State Street Rag (hokum song format)
TTITLE5=Sunnyland
TTITLE6=Redtail
TTITLE7=4 Till Late
TTITLE8=Fred's Song
TTITLE9=Terraplane Blues
TTITLE10=Louisiana Blues
TTITLE11=Little Mouse
TTITLE12=Catch A Train
EXTD=
EXTT0=
EXTT1=
EXTT2=
EXTT3=
EXTT4=
EXTT5=
EXTT6=
EXTT7=
EXTT8=
EXTT9=
EXTT10=
EXTT11=
EXTT12=
PLAYORDER=
